<?xml version="1.0" encoding="utf-8"?>
<!-- Svg Vector Icons : http://www.onlinewebfonts.com/icon -->
<!DOCTYPE svg PUBLIC "-//W3C//DTD SVG 1.1//EN" "http://www.w3.org/Graphics/SVG/1.1/DTD/svg11.dtd">
<svg version="1.1" xmlns="http://www.w3.org/2000/svg" xmlns:xlink="http://www.w3.org/1999/xlink" x="0px" y="0px" viewBox="0 0 1000 1000" enable-background="new 0 0 1000 1000" xml:space="preserve">
<metadata> Svg Vector Icons : http://www.onlinewebfonts.com/icon </metadata>
<g><g transform="translate(0.000000,511.000000) scale(0.100000,-0.100000)"><path d="M4657.8,5007.4c-38.2-4-157-18.1-261.7-30.2C2348.7,4743.7,623.4,3165.4,200.7,1136.1C120.1,747.6,100,540.2,100,107.4c0-432.8,20.1-640.2,100.7-1028.7C591.2-2797.5,2095-4301.4,3971.3-4691.9c388.5-80.5,595.9-100.7,1028.7-100.7c432.8,0,640.2,20.1,1028.7,100.7c1874.2,390.6,3380.1,1896.4,3770.6,3770.6C9879.9-532.8,9900-325.4,9900,107.4c0,561.7-62.4,990.5-221.4,1491.7c-569.7,1797.7-2107.8,3094.2-4004.1,3372C5479.1,4999.4,4798.7,5023.5,4657.8,5007.4z M5724.7,4395.4c1836-320.1,3237.1-1725.3,3565.3-3577.4c40.3-217.4,46.3-328.1,46.3-710.6s-6.1-493.2-46.3-710.6c-328.2-1858.1-1721.2-3251.2-3579.4-3579.4c-374.4-68.5-1048.8-66.5-1425.3,0C2431.2-3854.4,1038.1-2459.3,710-603.2c-66.4,372.4-66.4,1048.8,0,1421.3C923.4,2023.9,1583.7,3046.6,2580.2,3717c583.8,392.6,1254.2,636.2,1966.8,718.7C4816.8,4465.9,5438.8,4443.7,5724.7,4395.4z"/><path d="M4708.1,3064.7c-66.4-10.1-197.3-40.3-291.9-70.5C3397.5,2680.2,2797.6,1629.4,3047.2,594.6c92.6-382.5,398.6-1024.7,1016.6-2127.9c185.2-332.2,402.6-720.7,479.1-865.7c78.5-142.9,165.1-285.9,191.3-316.1c74.5-80.5,205.3-124.8,320.1-108.7c175.2,24.1,217.4,70.5,430.8,467.1c106.7,197.3,318.1,587.8,471.1,863.6c521.4,948.2,857.6,1624.6,970.3,1952.7c70.5,205.3,100.7,557.6,70.5,811.3c-92.6,799.2-642.2,1463.6-1409.2,1703.1c-153,48.3-589.8,116.8-708.6,110.7C4851,3082.8,4774.5,3074.8,4708.1,3064.7z M5231.5,1989.7c169.1-44.3,295.9-120.8,420.7-251.6c169.1-175.1,253.7-386.5,253.7-624.1s-84.6-448.9-253.7-624.1c-231.5-241.6-559.6-336.2-883.8-249.6c-571.7,147-847.5,813.3-553.6,1326.7c70.5,124.8,241.6,289.9,358.3,350.3C4770.5,2017.9,5018.1,2044.1,5231.5,1989.7z"/></g></g>
</svg>